<mxfile host="app.diagrams.net" modified="2021-07-19T03:47:47.138Z" agent="5.0 (Macintosh; Intel Mac OS X 10_15_7) AppleWebKit/537.36 (KHTML, like Gecko) Chrome/91.0.4472.114 Safari/537.36" etag="llJZ2j1CGoip5hBJ2yl5" version="14.8.6" type="github">
  <diagram id="R2lEEEUBdFMjLlhIrx00" name="Page-1">
    <mxGraphModel dx="946" dy="721" grid="1" gridSize="10" guides="1" tooltips="1" connect="1" arrows="1" fold="1" page="1" pageScale="1" pageWidth="850" pageHeight="1100" math="0" shadow="0" extFonts="Permanent Marker^https://fonts.googleapis.com/css?family=Permanent+Marker">
      <root>
        <mxCell id="0" />
        <mxCell id="1" parent="0" />
        <mxCell id="YmFI_gbXvh4YqXWvI4yA-3" value="" style="edgeStyle=orthogonalEdgeStyle;rounded=0;orthogonalLoop=1;jettySize=auto;html=1;" parent="1" source="YmFI_gbXvh4YqXWvI4yA-1" target="YmFI_gbXvh4YqXWvI4yA-2" edge="1">
          <mxGeometry relative="1" as="geometry" />
        </mxCell>
        <mxCell id="YmFI_gbXvh4YqXWvI4yA-4" value="1.配置活动并发布" style="edgeLabel;html=1;align=center;verticalAlign=middle;resizable=0;points=[];" parent="YmFI_gbXvh4YqXWvI4yA-3" vertex="1" connectable="0">
          <mxGeometry x="-0.5167" relative="1" as="geometry">
            <mxPoint x="26" as="offset" />
          </mxGeometry>
        </mxCell>
        <mxCell id="YmFI_gbXvh4YqXWvI4yA-1" value="产品" style="shape=umlActor;verticalLabelPosition=bottom;verticalAlign=top;html=1;outlineConnect=0;" parent="1" vertex="1">
          <mxGeometry x="50" y="370" width="50" height="90" as="geometry" />
        </mxCell>
        <mxCell id="YmFI_gbXvh4YqXWvI4yA-6" value="" style="edgeStyle=orthogonalEdgeStyle;rounded=0;orthogonalLoop=1;jettySize=auto;html=1;entryX=0;entryY=0.5;entryDx=0;entryDy=0;" parent="1" edge="1">
          <mxGeometry relative="1" as="geometry">
            <mxPoint x="360" y="434" as="sourcePoint" />
            <mxPoint x="470" y="434" as="targetPoint" />
          </mxGeometry>
        </mxCell>
        <mxCell id="YmFI_gbXvh4YqXWvI4yA-2" value="&lt;font style=&quot;font-size: 16px&quot;&gt;&lt;br&gt;活动配置中心&lt;/font&gt;" style="whiteSpace=wrap;html=1;verticalAlign=top;align=center;" parent="1" vertex="1">
          <mxGeometry x="240" y="380" width="120" height="70" as="geometry" />
        </mxCell>
        <mxCell id="YmFI_gbXvh4YqXWvI4yA-12" value="" style="edgeStyle=orthogonalEdgeStyle;rounded=0;orthogonalLoop=1;jettySize=auto;html=1;" parent="1" source="YmFI_gbXvh4YqXWvI4yA-7" edge="1">
          <mxGeometry relative="1" as="geometry">
            <mxPoint x="670" y="415" as="targetPoint" />
          </mxGeometry>
        </mxCell>
        <mxCell id="YmFI_gbXvh4YqXWvI4yA-14" value="6.渲染" style="edgeLabel;html=1;align=center;verticalAlign=middle;resizable=0;points=[];" parent="YmFI_gbXvh4YqXWvI4yA-12" vertex="1" connectable="0">
          <mxGeometry x="-0.05" y="1" relative="1" as="geometry">
            <mxPoint as="offset" />
          </mxGeometry>
        </mxCell>
        <mxCell id="YmFI_gbXvh4YqXWvI4yA-7" value="&lt;font style=&quot;font-size: 16px&quot;&gt;&lt;br&gt;活动引擎&lt;br&gt;&lt;/font&gt;" style="whiteSpace=wrap;html=1;verticalAlign=top;align=center;" parent="1" vertex="1">
          <mxGeometry x="470" y="380" width="120" height="70" as="geometry" />
        </mxCell>
        <mxCell id="YmFI_gbXvh4YqXWvI4yA-8" value="3.下发配置" style="text;html=1;align=center;verticalAlign=middle;resizable=0;points=[];autosize=1;strokeColor=none;" parent="1" vertex="1">
          <mxGeometry x="365" y="414" width="70" height="20" as="geometry" />
        </mxCell>
        <mxCell id="YmFI_gbXvh4YqXWvI4yA-9" value="" style="endArrow=classic;html=1;entryX=1;entryY=0.25;entryDx=0;entryDy=0;exitX=0;exitY=0.25;exitDx=0;exitDy=0;" parent="1" source="YmFI_gbXvh4YqXWvI4yA-7" target="YmFI_gbXvh4YqXWvI4yA-2" edge="1">
          <mxGeometry width="50" height="50" relative="1" as="geometry">
            <mxPoint x="430" y="570" as="sourcePoint" />
            <mxPoint x="480" y="520" as="targetPoint" />
          </mxGeometry>
        </mxCell>
        <mxCell id="YmFI_gbXvh4YqXWvI4yA-10" value="2.读取配置" style="text;html=1;align=center;verticalAlign=middle;resizable=0;points=[];autosize=1;strokeColor=none;" parent="1" vertex="1">
          <mxGeometry x="365" y="380" width="70" height="20" as="geometry" />
        </mxCell>
        <mxCell id="YmFI_gbXvh4YqXWvI4yA-13" value="&lt;font style=&quot;font-size: 16px&quot;&gt;&lt;br&gt;活动H5页面&lt;br&gt;&lt;/font&gt;" style="whiteSpace=wrap;html=1;verticalAlign=top;align=center;" parent="1" vertex="1">
          <mxGeometry x="670" y="380" width="120" height="70" as="geometry" />
        </mxCell>
        <mxCell id="YmFI_gbXvh4YqXWvI4yA-18" value="用户" style="shape=umlActor;verticalLabelPosition=bottom;verticalAlign=top;html=1;outlineConnect=0;" parent="1" vertex="1">
          <mxGeometry x="280" y="173" width="50" height="85" as="geometry" />
        </mxCell>
        <mxCell id="YmFI_gbXvh4YqXWvI4yA-23" value="&lt;font style=&quot;font-size: 16px&quot;&gt;&lt;br&gt;业务系统&lt;br&gt;&lt;/font&gt;" style="whiteSpace=wrap;html=1;verticalAlign=top;align=center;" parent="1" vertex="1">
          <mxGeometry x="470" y="180" width="120" height="70" as="geometry" />
        </mxCell>
        <mxCell id="YmFI_gbXvh4YqXWvI4yA-24" value="" style="endArrow=classic;html=1;entryX=0.5;entryY=0;entryDx=0;entryDy=0;exitX=0.5;exitY=1;exitDx=0;exitDy=0;" parent="1" source="YmFI_gbXvh4YqXWvI4yA-23" target="YmFI_gbXvh4YqXWvI4yA-7" edge="1">
          <mxGeometry width="50" height="50" relative="1" as="geometry">
            <mxPoint x="530" y="220" as="sourcePoint" />
            <mxPoint x="630" y="260" as="targetPoint" />
          </mxGeometry>
        </mxCell>
        <mxCell id="YmFI_gbXvh4YqXWvI4yA-27" value="5.产生活动数据" style="edgeLabel;html=1;align=center;verticalAlign=middle;resizable=0;points=[];" parent="YmFI_gbXvh4YqXWvI4yA-24" vertex="1" connectable="0">
          <mxGeometry x="-0.1077" y="-2" relative="1" as="geometry">
            <mxPoint as="offset" />
          </mxGeometry>
        </mxCell>
        <mxCell id="YmFI_gbXvh4YqXWvI4yA-25" value="" style="endArrow=classic;html=1;entryX=0;entryY=0.5;entryDx=0;entryDy=0;" parent="1" target="YmFI_gbXvh4YqXWvI4yA-23" edge="1">
          <mxGeometry width="50" height="50" relative="1" as="geometry">
            <mxPoint x="330" y="215" as="sourcePoint" />
            <mxPoint x="450" y="160" as="targetPoint" />
          </mxGeometry>
        </mxCell>
        <mxCell id="YmFI_gbXvh4YqXWvI4yA-26" value="4.业务活动" style="text;html=1;align=center;verticalAlign=middle;resizable=0;points=[];autosize=1;strokeColor=none;" parent="1" vertex="1">
          <mxGeometry x="365" y="200" width="70" height="20" as="geometry" />
        </mxCell>
      </root>
    </mxGraphModel>
  </diagram>
</mxfile>
